<svg xmlns="http://www.w3.org/2000/svg" viewBox="0 0 512 512" role="img" aria-label="Health Education and Awareness icon">
  <circle cx="256" cy="256" r="208" fill="#FEF3E2" opacity=".9"/>
  <g stroke="#1A1A1A" stroke-width="12" stroke-linecap="round" stroke-linejoin="round">
    <path d="M256 388s-114-67-114-150c0-48 37-80 80-80 27 0 49 13 63 36 14-23 36-36 63-36 43 0 80 32 80 80 0 83-114 150-114 150Z" fill="#F5A320"/>
    <path d="M208 236h24l12-28 22 66 14-38h26" fill="none"/>
    <path d="M208 236h24l12-28 22 66 14-38h26" fill="none" stroke="#FFFFFF" stroke-width="8"/>
    <path d="M210 170h20" fill="none" stroke="#72D64A"/>
    <path d="M288 170h20" fill="none" stroke="#72D64A"/>
    <path d="M256 142v24" fill="none" stroke="#E8342A"/>
    <path d="M256 360c18-14 34-28 48-42" fill="none" opacity=".5"/>
  </g>
</svg>
